<?xml version="1.0" encoding="utf-8"?>
<!-- Generator: Adobe Illustrator 21.0.2, SVG Export Plug-In . SVG Version: 6.00 Build 0)  -->
<svg version="1.1" id="Ebene_1" xmlns="http://www.w3.org/2000/svg" xmlns:xlink="http://www.w3.org/1999/xlink" x="0px" y="0px"
	 width="268.8px" height="41.3px" viewBox="0 0 268.8 41.3" style="enable-background:new 0 0 268.8 41.3;" xml:space="preserve">
<g>
	<path style="fill:#C85094;" d="M3.9,40.7L6,30.5H0v-6.5h7.4l1.5-7.1H2.4v-6.5h7.9L12.4,0h7.9l-2.1,10.2h6.2L26.5,0h7.9l-2.1,10.2
		h6.9v6.5h-8.2l-1.5,7.1h7.4v6.5H28l-2.1,10.2H18l2.1-10.2H14l-2.2,10.2H3.9z M15.3,23.9h6.2l1.5-7.1h-6.1L15.3,23.9z"/>
	<path d="M41,36.8l3.5-4.9c2.6,2.3,6.6,3.8,10.2,3.8c2.8,0,4.7-0.9,4.7-2.9c0-2-1.5-2.8-5.6-3.5c-5.6-1-11.5-2.3-11.5-9.2
		c0-5.9,4.8-9.3,11.4-9.3c6,0,9.6,1.5,12.9,4.1l-3.5,5c-3-2-5.9-3.2-8.6-3.2c-2.5,0-4,1-4,2.6c0,1.8,1.6,2.5,5.2,3.1
		c5.8,1,11.9,2.3,11.9,9c0,7.1-6.2,9.9-12.9,9.9C48.3,41.3,44,39.3,41,36.8z"/>
	<path d="M70.3,26.1c0-11.5,7.9-15.3,15-15.3c7.1,0,15,3.8,15,15.3c0,11.4-7.9,15.2-15,15.2C78.2,41.3,70.3,37.4,70.3,26.1z
		 M91.4,26.1c0-4.9-1.7-8.9-6.1-8.9c-4.2,0-6.2,3.6-6.2,8.9c0,4.9,1.6,9,6.2,9C89.5,35.1,91.4,31.5,91.4,26.1z"/>
	<path style="fill:#C85094;" d="M111.8,40.7l-8.6-29.3h8.9l2.5,10.5c0.8,3.1,1.3,5.2,1.9,9h0.1c0.7-3.8,1.2-6,2-9.2l2.5-10.3h6.9
		l2.7,10.4c0.9,3.1,1.3,5.2,2.1,9h0.1c0.7-3.7,1.2-5.9,2-8.9l2.7-10.6h7.9L137,40.7h-8.2l-4.4-17.9h-0.1l-4.4,17.9H111.8z"/>
	<path style="fill:#C85094;" d="M148.6,7.4V0.3h8.9v7.1H148.6z M148.7,40.7V11.4h8.8v29.3H148.7z"/>
	<path style="fill:#C85094;" d="M161.9,26.1c0-11.4,8.7-15.3,14.7-15.3c6,0,13.5,3,13.5,16.3v1.3h-19.4c0.4,4.8,3.1,6.7,6.8,6.7
		c3.5,0,6.7-1.7,8.7-3.5l3.4,5.3c-3.4,2.9-7.6,4.4-12.8,4.4C169.2,41.3,161.9,37.4,161.9,26.1z M182.2,23.2
		c-0.4-4.1-2.3-6.1-5.6-6.1c-2.7,0-5.1,1.8-5.8,6.1H182.2z"/>
	<path d="M196.6,7.4V0.3h8.9v7.1H196.6z M196.6,40.7V11.4h8.8v29.3H196.6z"/>
	<path d="M209.9,26.1c0-11.7,8.3-15.3,14.8-15.3c8,0,11.1,4.2,12.8,9l-7.4,2.5c-1.2-3.7-2.9-4.9-5.4-4.9c-3.6,0-5.8,3-5.8,8.9
		c0,5.2,1.6,9,5.7,9c2.4,0,4.5-1.3,5.8-5.2l7.3,2.5c-1.9,4.6-5.5,8.9-13.3,8.9C217.5,41.3,209.9,37.4,209.9,26.1z"/>
	<path d="M241.2,40.7V0h8.9v16c1.8-2.3,5-5.2,10.1-5.2c5,0,8.6,2.5,8.6,8.5v21.4h-8.9V22.1c0-2.6-1-4-3.4-4c-2.4,0-4.5,1.2-6.4,2.9
		v19.7H241.2z"/>
</g>
</svg>
